<svg width="48" height="48" fill="none" xmlns="http://www.w3.org/2000/svg"><path d="M24 22.449a5.724 5.724 0 1 0 0-11.45 5.724 5.724 0 0 0 0 11.45z" stroke="#fff" stroke-width="2"/><path d="M29.724 24.739h.404a3.435 3.435 0 0 1 3.407 3.009l.447 3.576a2.29 2.29 0 0 1-2.272 2.574H16.29a2.293 2.293 0 0 1-2.188-1.614 2.29 2.29 0 0 1-.084-.96l.446-3.576a3.434 3.434 0 0 1 3.41-3.009h.402" stroke="#fff" stroke-width="2" stroke-linecap="round" stroke-linejoin="round"/><circle cx="24" cy="24" r="23" stroke="#fff" stroke-width="2"/></svg>